<svg xmlns="http://www.w3.org/2000/svg" version="1.1" xmlns:xlink="http://www.w3.org/1999/xlink" width="200" height="200"><svg xmlns="http://www.w3.org/2000/svg" version="1.1" xmlns:xlink="http://www.w3.org/1999/xlink" width="200" height="200"><svg xmlns="http://www.w3.org/2000/svg" version="1.1" xmlns:xlink="http://www.w3.org/1999/xlink" viewBox="0 0 200 200"><rect width="200" height="200" fill="url('#gradient')"></rect><defs><linearGradient id="gradient" gradientTransform="rotate(65 0.5 0.5)"><stop offset="0%" stop-color="#e6650f"></stop><stop offset="100%" stop-color="#ff7a00"></stop></linearGradient></defs><g><g fill="#0c58eb" transform="matrix(1.3750734368443138,0,0,1.3750734368443138,18.523969045337694,109.77614718604077)" stroke="#e4cdbc" stroke-width="0.9"><path d="M6.69-4.82L4.50-4.82L4.50 0L1.07 0L1.07-14.22L6.75-14.22Q8.38-14.22 9.63-13.62Q10.89-13.02 11.58-11.91Q12.27-10.80 12.27-9.39L12.27-9.39Q12.27-7.31 10.78-6.07Q9.29-4.82 6.69-4.82L6.69-4.82ZM4.50-11.57L4.50-7.47L6.75-7.47Q7.74-7.47 8.27-7.97Q8.79-8.47 8.79-9.38L8.79-9.38Q8.79-10.37 8.25-10.97Q7.71-11.56 6.79-11.57L6.79-11.57L4.50-11.57ZM18.77 0L14.09 0L14.09-14.22L18.67-14.22Q20.56-14.22 22.06-13.36Q23.56-12.51 24.41-10.95Q25.25-9.39 25.26-7.46L25.26-7.46L25.26-6.81Q25.26-4.85 24.44-3.31Q23.61-1.76 22.11-0.88Q20.62-0.01 18.77 0L18.77 0ZM18.67-11.57L17.52-11.57L17.52-2.64L18.71-2.64Q20.19-2.64 20.98-3.69Q21.77-4.74 21.77-6.81L21.77-6.81L21.77-7.42Q21.77-9.48 20.98-10.53Q20.19-11.57 18.67-11.57L18.67-11.57ZM35.98-8.30L35.98-5.66L30.45-5.66L30.45 0L27.02 0L27.02-14.22L36.53-14.22L36.53-11.57L30.45-11.57L30.45-8.30L35.98-8.30ZM44.24-7.40L44.24-4.85L38.37-4.85L38.37-7.40L44.24-7.40ZM49.65-14.22L52.47-3.87L55.30-14.22L59.13-14.22L54.35 0L50.60 0L45.85-14.22L49.65-14.22ZM63.82-14.22L63.82 0L60.40 0L60.40-14.22L63.82-14.22ZM75.02-8.57L75.02-6.03L69.63-6.03L69.63-2.64L76.00-2.64L76.00 0L66.20 0L66.20-14.22L76.02-14.22L76.02-11.57L69.63-11.57L69.63-8.57L75.02-8.57ZM86.43-14.22L88.41-5.30L90.04-14.22L93.44-14.22L90.42 0L86.87 0L84.96-8.11L83.10 0L79.55 0L76.52-14.22L79.93-14.22L81.56-5.30L83.52-14.22L86.43-14.22ZM103.59-8.57L103.59-6.03L98.20-6.03L98.20-2.64L104.57-2.64L104.57 0L94.78 0L94.78-14.22L104.59-14.22L104.59-11.57L98.20-11.57L98.20-8.57L103.59-8.57ZM113.76 0L111.25-5.02L109.39-5.02L109.39 0L105.97 0L105.97-14.22L111.56-14.22Q114.09-14.22 115.52-13.10Q116.94-11.97 116.94-9.92L116.94-9.92Q116.94-8.44 116.34-7.46Q115.74-6.48 114.46-5.88L114.46-5.88L117.43-0.15L117.43 0L113.76 0ZM109.39-11.57L109.39-7.67L111.56-7.67Q112.54-7.67 113.03-8.18Q113.53-8.69 113.53-9.61Q113.53-10.53 113.03-11.05Q112.53-11.57 111.56-11.57L111.56-11.57L109.39-11.57Z"></path></g></g></svg></svg><style>@media (prefers-color-scheme: light) { :root { filter: none; } }
@media (prefers-color-scheme: dark) { :root { filter: none; } }
</style></svg>